<svg xmlns="http://www.w3.org/2000/svg" xmlns:xlink="http://www.w3.org/1999/xlink" width="16" height="16" viewBox="0 0 16 16">
  <defs>
    <clipPath id="clip-path">
      <rect id="Rectangle_8908" data-name="Rectangle 8908" width="16" height="16" fill="#52b1e4" stroke="#707070" stroke-width="1"/>
    </clipPath>
  </defs>
  <g id="Mask_Group_1857" data-name="Mask Group 1857" clip-path="url(#clip-path)">
    <path id="fi-rr-badge" d="M3,5.328a5.329,5.329,0,1,1,9.326,3.513v5.48a1.665,1.665,0,0,1-2.706,1.3l-1.083-.866a.333.333,0,0,0-.416,0l-1.083.866a1.665,1.665,0,0,1-2.706-1.3V8.841A5.3,5.3,0,0,1,3,5.328Zm5.329-4a4,4,0,1,0,4,4,4,4,0,0,0-4-4ZM5.851,14.619a.327.327,0,0,0,.352-.04l1.083-.866a1.659,1.659,0,0,1,2.081,0l1.083.866a.333.333,0,0,0,.542-.258V9.936a5.286,5.286,0,0,1-5.329,0v4.385A.324.324,0,0,0,5.851,14.619Z" transform="translate(-0.327 0.014)" fill="#52b1e4"/>
  </g>
</svg>
