<svg xmlns="http://www.w3.org/2000/svg" xmlns:xlink="http://www.w3.org/1999/xlink" width="16" height="16" viewBox="0 0 16 16">
  <defs>
    <clipPath id="clip-path">
      <rect id="Rectangle_8467" data-name="Rectangle 8467" width="16" height="16" transform="translate(0)" fill="#52b1e4" stroke="#707070" stroke-width="1"/>
    </clipPath>
  </defs>
  <g id="Mask_Group_1679" data-name="Mask Group 1679" clip-path="url(#clip-path)">
    <g id="stethoscope-line_5_" data-name="stethoscope-line (5)" transform="translate(0)">
      <path id="Path_15736" data-name="Path 15736" d="M16,0H0V16H16Z" fill="none"/>
      <path id="Path_15737" data-name="Path 15737" d="M12,2V3.333h1.333V6A2.667,2.667,0,1,1,8,6V3.333H9.333V2h-2a.667.667,0,0,0-.667.667V6A4,4,0,0,0,10,9.945V11a2.334,2.334,0,0,1-4.517.825,2,2,0,1,0-1.366.1A3.667,3.667,0,0,0,11.333,11V9.945A4,4,0,0,0,14.667,6V2.667A.667.667,0,0,0,14,2ZM4.667,9.333A.667.667,0,1,1,4,10,.667.667,0,0,1,4.667,9.333Z" transform="translate(-1.333)" fill="#52b1e4"/>
    </g>
  </g>
</svg>
