<svg id="Home" xmlns="http://www.w3.org/2000/svg" width="24" height="24" viewBox="0 0 24 24">
  <rect id="Rectangle_287" data-name="Rectangle 287" width="24" height="24" fill="#fff" opacity="0"/>
  <g id="Home-2" data-name="Home" transform="translate(2 1.996)">
    <path id="Path_319" data-name="Path 319" d="M100.286,274.707h-10a5,5,0,0,1-5-5V264.7a5,5,0,0,1,1.6-3.667l5.68-5.265a4,4,0,0,1,5.438,0l5.68,5.265a5,5,0,0,1,1.6,3.667v5.009A5,5,0,0,1,100.286,274.707Z" transform="translate(-85.286 -254.7)" fill="none" stroke="#9898ae" stroke-linecap="round" stroke-linejoin="round" stroke-miterlimit="10" stroke-width="1.5"/>
    <path id="Path_399" data-name="Path 399" d="M90.151,261.918l1.082.833a6.664,6.664,0,0,0,8.131,0l1.028-.792" transform="translate(-85.272 -249.82)" fill="none" stroke="#9898ae" stroke-linecap="round" stroke-linejoin="round" stroke-miterlimit="10" stroke-width="1"/>
  </g>
</svg>
